<?xml version="1.0" encoding="UTF-8" standalone="no"?>
<!DOCTYPE svg PUBLIC "-//W3C//DTD SVG 1.1//EN" "http://www.w3.org/Graphics/SVG/1.1/DTD/svg11.dtd">
<svg version="1.1" xmlns="http://www.w3.org/2000/svg" xmlns:xlink="http://www.w3.org/1999/xlink" preserveAspectRatio="xMidYMid meet" viewBox="0 0 640 640" width="640" height="640"><defs><path d="M322.4 614.22C162.85 614.22 33.31 485.98 33.31 328.01C33.31 170.04 162.85 41.79 322.4 41.79C481.95 41.79 611.49 170.04 611.49 328.01C611.49 485.98 481.95 614.22 322.4 614.22Z" id="a5ayGFkvo"></path><path d="M332.07 4.16L338.08 4.47L344.06 4.9L350.03 5.45L355.96 6.12L361.87 6.9L367.76 7.81L373.61 8.84L379.44 9.99L385.23 11.25L390.99 12.63L396.72 14.13L402.41 15.74L408.06 17.47L413.68 19.31L419.26 21.27L424.8 23.34L430.29 25.52L435.75 27.82L441.16 30.23L446.52 32.75L451.84 35.38L457.1 38.12L462.32 40.97L467.49 43.93L472.61 46.99L477.67 50.17L482.67 53.45L487.63 56.84L492.52 60.34L497.35 63.94L502.13 67.65L506.84 71.46L511.49 75.38L516.08 79.4L520.6 83.52L525.05 87.74L529.44 92.07L533.76 96.49L537.99 101.01L542.13 105.6L546.17 110.25L550.11 114.98L553.96 119.78L557.7 124.64L561.35 129.57L564.89 134.56L568.34 139.61L571.68 144.73L574.92 149.91L578.06 155.14L581.1 160.44L584.03 165.78L586.86 171.19L589.59 176.64L592.21 182.15L594.73 187.71L597.14 193.32L599.44 198.97L601.64 204.68L603.72 210.42L605.7 216.21L607.58 222.05L609.34 227.92L610.99 233.83L612.53 239.79L613.97 245.77L615.29 251.8L616.49 257.85L617.59 263.94L618.57 270.07L619.44 276.22L620.2 282.4L620.84 288.6L621.36 294.84L621.77 301.1L622.06 307.38L622.24 313.68L622.3 320L622.24 326.32L622.06 332.62L621.77 338.9L621.36 345.16L620.84 351.4L620.2 357.6L619.44 363.78L618.57 369.93L617.59 376.06L616.49 382.15L615.29 388.2L613.97 394.23L612.53 400.21L610.99 406.17L609.34 412.08L607.58 417.95L605.7 423.79L603.72 429.58L601.64 435.32L599.44 441.03L597.14 446.68L594.73 452.29L592.21 457.85L589.59 463.36L586.86 468.81L584.03 474.22L581.1 479.56L578.06 484.86L574.92 490.09L571.68 495.27L568.34 500.39L564.89 505.44L561.35 510.43L557.7 515.36L553.96 520.22L550.11 525.02L546.17 529.75L542.13 534.4L537.99 538.99L533.76 543.51L529.44 547.93L525.05 552.26L520.6 556.48L516.08 560.6L511.49 564.62L506.84 568.54L502.13 572.35L497.35 576.06L492.52 579.66L487.63 583.16L482.67 586.55L477.67 589.83L472.61 593.01L467.49 596.07L462.32 599.03L457.1 601.88L451.84 604.62L446.52 607.25L441.16 609.77L435.75 612.18L430.29 614.48L424.8 616.66L419.26 618.73L413.68 620.69L408.06 622.53L402.41 624.26L396.72 625.87L390.99 627.37L385.23 628.75L379.44 630.01L373.61 631.16L367.76 632.19L361.87 633.1L355.96 633.88L350.03 634.55L344.06 635.1L338.08 635.53L332.07 635.84L326.05 636.02L320 636.08L313.95 636.02L307.93 635.84L301.92 635.53L295.94 635.1L289.97 634.55L284.04 633.88L278.13 633.1L272.24 632.19L266.39 631.16L260.56 630.01L254.77 628.75L249.01 627.37L243.28 625.87L237.59 624.26L231.94 622.53L226.32 620.69L220.74 618.73L215.2 616.66L209.71 614.48L204.25 612.18L198.84 609.77L193.48 607.25L188.16 604.62L182.9 601.88L177.68 599.03L172.51 596.07L167.39 593.01L162.33 589.83L157.33 586.55L152.37 583.16L147.48 579.66L142.65 576.06L137.87 572.35L133.16 568.54L128.51 564.62L123.92 560.6L119.4 556.48L114.95 552.26L110.56 547.93L106.24 543.51L102.01 538.99L97.87 534.4L93.83 529.75L89.89 525.02L86.04 520.22L82.3 515.36L78.65 510.43L75.11 505.44L71.66 500.39L68.32 495.27L65.08 490.09L61.94 484.86L58.9 479.56L55.97 474.22L53.14 468.81L50.41 463.36L47.79 457.85L45.27 452.29L42.86 446.68L40.56 441.03L38.36 435.32L36.28 429.58L34.3 423.79L32.42 417.95L30.66 412.08L29.01 406.17L27.47 400.21L26.03 394.23L24.71 388.2L23.51 382.15L22.41 376.06L21.43 369.93L20.56 363.78L19.8 357.6L19.16 351.4L18.64 345.16L18.23 338.9L17.94 332.62L17.76 326.32L17.7 320L17.76 313.68L17.94 307.38L18.23 301.1L18.64 294.84L19.16 288.6L19.8 282.4L20.56 276.22L21.43 270.07L22.41 263.94L23.51 257.85L24.71 251.8L26.03 245.77L27.47 239.79L29.01 233.83L30.66 227.92L32.42 222.05L34.3 216.21L36.28 210.42L38.36 204.68L40.56 198.97L42.86 193.32L45.27 187.71L47.79 182.15L50.41 176.64L53.14 171.19L55.97 165.78L58.9 160.44L61.94 155.14L65.08 149.91L68.32 144.73L71.66 139.61L75.11 134.56L78.65 129.57L82.3 124.64L86.04 119.78L89.89 114.98L93.83 110.25L97.87 105.6L102.01 101.01L106.24 96.49L110.56 92.07L114.95 87.74L119.4 83.52L123.92 79.4L128.51 75.38L133.16 71.46L137.87 67.65L142.65 63.94L147.48 60.34L152.37 56.84L157.33 53.45L162.33 50.17L167.39 46.99L172.51 43.93L177.68 40.97L182.9 38.12L188.16 35.38L193.48 32.75L198.84 30.23L204.25 27.82L209.71 25.52L215.2 23.34L220.74 21.27L226.32 19.31L231.94 17.47L237.59 15.74L243.28 14.13L249.01 12.63L254.77 11.25L260.56 9.99L266.39 8.84L272.24 7.81L278.13 6.9L284.04 6.12L289.97 5.45L295.94 4.9L301.92 4.47L307.93 4.16L313.95 3.98L320 3.92L326.05 3.98L332.07 4.16ZM299.11 54.19L288.84 55.28L278.68 56.8L268.66 58.73L258.78 61.07L249.04 63.8L239.47 66.92L230.05 70.42L220.81 74.3L211.75 78.53L202.88 83.12L194.21 88.05L185.74 93.32L177.49 98.91L169.46 104.83L161.66 111.05L154.1 117.58L146.79 124.4L139.73 131.51L132.93 138.89L126.41 146.53L120.17 154.44L114.21 162.6L108.56 170.99L103.2 179.62L98.17 188.47L93.45 197.54L89.06 206.82L85.01 216.29L81.31 225.95L77.96 235.79L74.98 245.81L72.36 255.99L70.13 266.32L68.28 276.8L66.83 287.41L65.78 298.16L65.15 309.02L64.94 320L65.15 330.98L65.78 341.84L66.83 352.59L68.28 363.2L70.13 373.68L72.36 384.01L74.98 394.19L77.96 404.21L81.31 414.05L85.01 423.71L89.06 433.18L93.45 442.46L98.17 451.53L103.2 460.38L108.56 469.01L114.21 477.4L120.17 485.56L126.41 493.47L132.93 501.11L139.73 508.49L146.79 515.6L154.1 522.42L161.66 528.95L169.46 535.17L177.49 541.09L185.74 546.68L194.21 551.95L202.88 556.88L211.75 561.47L220.81 565.7L230.05 569.58L239.47 573.08L249.04 576.2L258.78 578.93L268.66 581.27L278.68 583.2L288.84 584.72L299.11 585.81L309.5 586.47L320 586.7L330.5 586.47L340.89 585.81L351.16 584.72L361.32 583.2L371.34 581.27L381.22 578.93L390.96 576.2L400.53 573.08L409.95 569.58L419.19 565.7L428.25 561.47L437.12 556.88L445.79 551.95L454.26 546.68L462.51 541.09L470.54 535.17L478.34 528.95L485.9 522.42L493.21 515.6L500.27 508.49L507.07 501.11L513.59 493.47L519.83 485.56L525.79 477.4L531.44 469.01L536.8 460.38L541.83 451.53L546.55 442.46L550.94 433.18L554.99 423.71L558.69 414.05L562.04 404.21L565.02 394.19L567.64 384.01L569.87 373.68L571.72 363.2L573.17 352.59L574.22 341.84L574.85 330.98L575.06 320L574.85 309.02L574.22 298.16L573.17 287.41L571.72 276.8L569.87 266.32L567.64 255.99L565.02 245.81L562.04 235.79L558.69 225.95L554.99 216.29L550.94 206.82L546.55 197.54L541.83 188.47L536.8 179.62L531.44 170.99L525.79 162.6L519.83 154.44L513.59 146.53L507.07 138.89L500.27 131.51L493.21 124.4L485.9 117.58L478.34 111.05L470.54 104.83L462.51 98.91L454.26 93.32L445.79 88.05L437.12 83.12L428.25 78.53L419.19 74.3L409.95 70.42L400.53 66.92L390.96 63.8L381.22 61.07L371.34 58.73L361.32 56.8L351.16 55.28L340.89 54.19L330.5 53.53L320 53.3L309.5 53.53L299.11 54.19Z" id="a3OaIeyFfP"></path><path d="M332.07 4.16L338.08 4.47L344.06 4.9L350.03 5.45L355.96 6.12L361.87 6.9L367.76 7.81L373.61 8.84L379.44 9.99L385.23 11.25L390.99 12.63L396.72 14.13L402.41 15.74L408.06 17.47L413.68 19.31L419.26 21.27L424.8 23.34L430.29 25.52L435.75 27.82L441.16 30.23L446.52 32.75L451.84 35.38L457.1 38.12L462.32 40.97L467.49 43.93L472.61 46.99L477.67 50.17L482.67 53.45L487.63 56.84L492.52 60.34L497.35 63.94L502.13 67.65L506.84 71.46L511.49 75.38L516.08 79.4L520.6 83.52L525.05 87.74L529.44 92.07L533.76 96.49L537.99 101.01L542.13 105.6L546.17 110.25L550.11 114.98L553.96 119.78L557.7 124.64L561.35 129.57L564.89 134.56L568.34 139.61L571.68 144.73L574.92 149.91L578.06 155.14L581.1 160.44L584.03 165.78L586.86 171.19L589.59 176.64L592.21 182.15L594.73 187.71L597.14 193.32L599.44 198.97L601.64 204.68L603.72 210.42L605.7 216.21L607.58 222.05L609.34 227.92L610.99 233.83L612.53 239.79L613.97 245.77L615.29 251.8L616.49 257.85L617.59 263.94L618.57 270.07L619.44 276.22L620.2 282.4L620.84 288.6L621.36 294.84L621.77 301.1L622.06 307.38L622.24 313.68L622.3 320L622.24 326.32L622.06 332.62L621.77 338.9L621.36 345.16L620.84 351.4L620.2 357.6L619.44 363.78L618.57 369.93L617.59 376.06L616.49 382.15L615.29 388.2L613.97 394.23L612.53 400.21L610.99 406.17L609.34 412.08L607.58 417.95L605.7 423.79L603.72 429.58L601.64 435.32L599.44 441.03L597.14 446.68L594.73 452.29L592.21 457.85L589.59 463.36L586.86 468.81L584.03 474.22L581.1 479.56L578.06 484.86L574.92 490.09L571.68 495.27L568.34 500.39L564.89 505.44L561.35 510.43L557.7 515.36L553.96 520.22L550.11 525.02L546.17 529.75L542.13 534.4L537.99 538.99L533.76 543.51L529.44 547.93L525.05 552.26L520.6 556.48L516.08 560.6L511.49 564.62L506.84 568.54L502.13 572.35L497.35 576.06L492.52 579.66L487.63 583.16L482.67 586.55L477.67 589.83L472.61 593.01L467.49 596.07L462.32 599.03L457.1 601.88L451.84 604.62L446.52 607.25L441.16 609.77L435.75 612.18L430.29 614.48L424.8 616.66L419.26 618.73L413.68 620.69L408.06 622.53L402.41 624.26L396.72 625.87L390.99 627.37L385.23 628.75L379.44 630.01L373.61 631.16L367.76 632.19L361.87 633.1L355.96 633.88L350.03 634.55L344.06 635.1L338.08 635.53L332.07 635.84L326.05 636.02L320 636.08L313.95 636.02L307.93 635.84L301.92 635.53L295.94 635.1L289.97 634.55L284.04 633.88L278.13 633.1L272.24 632.19L266.39 631.16L260.56 630.01L254.77 628.75L249.01 627.37L243.28 625.87L237.59 624.26L231.94 622.53L226.32 620.69L220.74 618.73L215.2 616.66L209.71 614.48L204.25 612.18L198.84 609.77L193.48 607.25L188.16 604.62L182.9 601.88L177.68 599.03L172.51 596.07L167.39 593.01L162.33 589.83L157.33 586.55L152.37 583.16L147.48 579.66L142.65 576.06L137.87 572.35L133.16 568.54L128.51 564.62L123.92 560.6L119.4 556.48L114.95 552.26L110.56 547.93L106.24 543.51L102.01 538.99L97.87 534.4L93.83 529.75L89.89 525.02L86.04 520.22L82.3 515.36L78.65 510.43L75.11 505.44L71.66 500.39L68.32 495.27L65.08 490.09L61.94 484.86L58.9 479.56L55.97 474.22L53.14 468.81L50.41 463.36L47.79 457.85L45.27 452.29L42.86 446.68L40.56 441.03L38.36 435.32L36.28 429.58L34.3 423.79L32.42 417.95L30.66 412.08L29.01 406.17L27.47 400.21L26.03 394.23L24.71 388.2L23.51 382.15L22.41 376.06L21.43 369.93L20.56 363.78L19.8 357.6L19.16 351.4L18.64 345.16L18.23 338.9L17.94 332.62L17.76 326.32L17.7 320L17.76 313.68L17.94 307.38L18.23 301.1L18.64 294.84L19.16 288.6L19.8 282.4L20.56 276.22L21.43 270.07L22.41 263.94L23.51 257.85L24.71 251.8L26.03 245.77L27.47 239.79L29.01 233.83L30.66 227.92L32.42 222.05L34.3 216.21L36.28 210.42L38.36 204.68L40.56 198.97L42.86 193.32L45.27 187.71L47.79 182.15L50.41 176.64L53.14 171.19L55.97 165.78L58.9 160.44L61.94 155.14L65.08 149.91L68.32 144.73L71.66 139.61L75.11 134.56L78.65 129.57L82.3 124.64L86.04 119.78L89.89 114.98L93.83 110.25L97.87 105.6L102.01 101.01L106.24 96.49L110.56 92.07L114.95 87.74L119.4 83.52L123.92 79.4L128.51 75.38L133.16 71.46L137.87 67.65L142.65 63.94L147.48 60.34L152.37 56.84L157.33 53.45L162.33 50.17L167.39 46.99L172.51 43.93L177.68 40.97L182.9 38.12L188.16 35.38L193.48 32.75L198.84 30.23L204.25 27.82L209.71 25.52L215.2 23.34L220.74 21.27L226.32 19.31L231.94 17.47L237.59 15.74L243.28 14.13L249.01 12.63L254.77 11.25L260.56 9.99L266.39 8.84L272.24 7.81L278.13 6.9L284.04 6.12L289.97 5.45L295.94 4.9L301.92 4.47L307.93 4.16L313.95 3.98L320 3.92L326.05 3.98L332.07 4.16ZM299.11 54.19L288.84 55.28L278.68 56.8L268.66 58.73L258.78 61.07L249.04 63.8L239.47 66.92L230.05 70.42L220.81 74.3L211.75 78.53L202.88 83.12L194.21 88.05L185.74 93.32L177.49 98.91L169.46 104.83L161.66 111.05L154.1 117.58L146.79 124.4L139.73 131.51L132.93 138.89L126.41 146.53L120.17 154.44L114.21 162.6L108.56 170.99L103.2 179.62L98.17 188.47L93.45 197.54L89.06 206.82L85.01 216.29L81.31 225.95L77.96 235.79L74.98 245.81L72.36 255.99L70.13 266.32L68.28 276.8L66.83 287.41L65.78 298.16L65.15 309.02L64.94 320L65.15 330.98L65.78 341.84L66.83 352.59L68.28 363.2L70.13 373.68L72.36 384.01L74.98 394.19L77.96 404.21L81.31 414.05L85.01 423.71L89.06 433.18L93.45 442.46L98.17 451.53L103.2 460.38L108.56 469.01L114.21 477.4L120.17 485.56L126.41 493.47L132.93 501.11L139.73 508.49L146.79 515.6L154.1 522.42L161.66 528.95L169.46 535.17L177.49 541.09L185.74 546.68L194.21 551.95L202.88 556.88L211.75 561.47L220.81 565.7L230.05 569.58L239.47 573.08L249.04 576.2L258.78 578.93L268.66 581.27L278.68 583.2L288.84 584.72L299.11 585.81L309.5 586.47L320 586.7L330.5 586.47L340.89 585.81L351.16 584.72L361.32 583.2L371.34 581.27L381.22 578.93L390.96 576.2L400.53 573.08L409.95 569.58L419.19 565.7L428.25 561.47L437.12 556.88L445.79 551.95L454.26 546.68L462.51 541.09L470.54 535.17L478.34 528.95L485.9 522.42L493.21 515.6L500.27 508.49L507.07 501.11L513.59 493.47L519.83 485.56L525.79 477.4L531.44 469.01L536.8 460.38L541.83 451.53L546.55 442.46L550.94 433.18L554.99 423.71L558.69 414.05L562.04 404.21L565.02 394.19L567.64 384.01L569.87 373.68L571.72 363.2L573.17 352.59L574.22 341.84L574.85 330.98L575.06 320L574.85 309.02L574.22 298.16L573.17 287.41L571.72 276.8L569.87 266.32L567.64 255.99L565.02 245.81L562.04 235.79L558.69 225.95L554.99 216.29L550.94 206.82L546.55 197.54L541.83 188.47L536.8 179.62L531.44 170.99L525.79 162.6L519.83 154.44L513.59 146.53L507.07 138.89L500.27 131.51L493.21 124.4L485.9 117.58L478.34 111.05L470.54 104.83L462.51 98.91L454.26 93.32L445.79 88.05L437.12 83.12L428.25 78.53L419.19 74.3L409.95 70.42L400.53 66.92L390.96 63.8L381.22 61.07L371.34 58.73L361.32 56.8L351.16 55.28L340.89 54.19L330.5 53.53L320 53.3L309.5 53.53L299.11 54.19Z" id="d4Ks1JfqC8"></path><path d="M274.98 477.37C244.56 451.76 165.47 385.2 135.04 359.59C128.31 353.92 128.74 342.22 136.01 333.43C142.9 325.12 150.42 316.05 157.32 307.72C164.59 298.95 175.94 296.44 182.68 302.1C213.11 327.71 292.19 394.28 322.62 419.88C329.35 425.55 328.92 437.26 321.65 446.04C314.76 454.36 307.24 463.43 300.35 471.75C293.08 480.52 281.72 483.04 274.98 477.37Z" id="ieqG5YUvw"></path><path d="M248.6 418.29C291.75 371 403.92 248.07 447.06 200.77C456.62 190.31 471.14 188.09 479.52 195.82C487.45 203.15 496.1 211.16 504.05 218.49C512.41 226.22 511.44 240.99 501.9 251.46C458.74 298.75 346.58 421.68 303.43 468.98C293.88 479.44 279.35 481.66 270.97 473.93C263.04 466.6 254.39 458.59 246.45 451.26C238.08 443.53 239.05 428.76 248.6 418.29Z" id="ac0JT5YaG"></path></defs><g><g><g><use xlink:href="#a5ayGFkvo" opacity="1" fill="#000000" fill-opacity="0.8"></use><g><use xlink:href="#a5ayGFkvo" opacity="1" fill-opacity="0" stroke="#000000" stroke-width="1" stroke-opacity="0"></use></g></g><g><use xlink:href="#a3OaIeyFfP" opacity="1" fill="#ffffff" fill-opacity="1"></use><g><use xlink:href="#a3OaIeyFfP" opacity="1" fill-opacity="0" stroke="#000000" stroke-width="1" stroke-opacity="0"></use></g></g><g><use xlink:href="#d4Ks1JfqC8" opacity="1" fill="#000000" fill-opacity="0"></use><g><use xlink:href="#d4Ks1JfqC8" opacity="1" fill-opacity="0" stroke="#000000" stroke-width="1" stroke-opacity="0"></use></g></g><g><use xlink:href="#ieqG5YUvw" opacity="1" fill="#ffffff" fill-opacity="1"></use><g><use xlink:href="#ieqG5YUvw" opacity="1" fill-opacity="0" stroke="#000000" stroke-width="1" stroke-opacity="0"></use></g></g><g><use xlink:href="#ac0JT5YaG" opacity="1" fill="#ffffff" fill-opacity="1"></use><g><use xlink:href="#ac0JT5YaG" opacity="1" fill-opacity="0" stroke="#000000" stroke-width="1" stroke-opacity="0"></use></g></g></g></g></svg>