<?xml version="1.0" encoding="UTF-8" standalone="no"?>
<!DOCTYPE svg PUBLIC "-//W3C//DTD SVG 1.1//EN" "http://www.w3.org/Graphics/SVG/1.1/DTD/svg11.dtd">
<svg version="1.1" xmlns="http://www.w3.org/2000/svg" xmlns:xlink="http://www.w3.org/1999/xlink" preserveAspectRatio="xMidYMid meet" viewBox="0 0 640 640" width="640" height="640"><defs><path d="M622.3 319.97C622.3 485.54 486.84 619.97 320 619.97C153.16 619.97 17.7 485.54 17.7 319.97C17.7 154.39 153.16 19.97 320 19.97C486.84 19.97 622.3 154.39 622.3 319.97Z" id="a1hZQfFcFw"></path><path d="M192.83 249.12L128.81 249.12L128.81 391.69L192.83 391.69C265.37 445.48 305.67 475.36 313.73 481.34C313.73 481.34 335.98 499.92 335.98 480.77C335.98 461.52 335.98 174.82 335.98 157.26C335.98 142.23 316.38 156.97 316.38 156.97C299.91 169.25 258.73 199.97 192.83 249.12Z" id="e2ojPVrhhU"></path><path d="M346.27 1.06L359.17 2.37L371.93 4.19L384.51 6.5L396.92 9.3L409.14 12.57L421.16 16.31L432.98 20.51L444.57 25.14L455.94 30.22L467.07 35.71L477.95 41.62L488.57 47.94L498.93 54.65L509 61.74L518.78 69.2L528.26 77.02L537.43 85.2L546.28 93.72L554.8 102.56L562.98 111.74L570.8 121.22L578.26 131L585.35 141.07L592.06 151.42L598.37 162.04L604.28 172.92L609.78 184.05L614.85 195.42L619.49 207.01L623.69 218.83L627.43 230.85L630.7 243.07L633.5 255.47L635.81 268.06L637.63 280.81L638.94 293.71L639.73 306.77L640 319.95L639.73 333.15L638.94 346.2L637.63 359.11L635.81 371.86L633.5 384.45L630.7 396.86L627.43 409.08L623.69 421.11L619.5 432.93L614.86 444.52L609.79 455.9L604.29 467.03L598.38 477.91L592.07 488.53L585.36 498.89L578.27 508.96L570.81 518.75L562.98 528.23L554.81 537.4L546.29 546.26L537.44 554.78L528.27 562.95L518.79 570.78L509.01 578.25L498.94 585.34L488.58 592.05L477.96 598.36L467.08 604.27L455.95 609.77L444.58 614.85L432.99 619.49L421.17 623.68L409.15 627.42L396.92 630.7L384.52 633.5L371.93 635.81L359.18 637.63L346.27 638.94L333.21 639.73L320.02 640L306.83 639.73L293.77 638.94L280.86 637.63L268.11 635.81L255.52 633.5L243.11 630.7L230.89 627.42L218.86 623.68L207.05 619.49L195.45 614.85L184.08 609.78L172.95 604.28L162.07 598.37L151.45 592.05L141.09 585.34L131.02 578.25L121.24 570.79L111.76 562.96L102.59 554.78L93.74 546.26L85.22 537.41L77.04 528.24L69.22 518.76L61.75 508.97L54.66 498.9L47.96 488.54L41.64 477.92L35.73 467.04L30.24 455.91L25.17 444.53L20.53 432.93L16.33 421.12L12.59 409.09L9.32 396.87L6.52 384.46L4.21 371.87L2.39 359.12L1.08 346.2L0.29 333.15L0.02 319.95L0.29 306.77L1.08 293.71L2.39 280.81L4.21 268.06L6.52 255.47L9.32 243.07L12.59 230.85L16.33 218.83L20.53 207.01L25.17 195.42L30.24 184.05L35.73 172.92L41.64 162.04L47.96 151.42L54.66 141.07L61.75 131L69.22 121.22L77.04 111.74L85.22 102.56L93.74 93.72L102.59 85.2L111.76 77.02L121.24 69.2L131.02 61.74L141.09 54.65L151.45 47.94L162.07 41.62L172.95 35.71L184.08 30.22L195.45 25.14L207.05 20.51L218.86 16.31L230.89 12.57L243.11 9.3L255.52 6.5L268.11 4.19L280.86 2.37L293.77 1.06L306.83 0.27L320.02 0L333.21 0.27L346.27 1.06ZM296.46 33.66L284.86 34.84L273.41 36.47L262.11 38.54L250.97 41.06L240 43.99L229.2 47.35L218.59 51.12L208.18 55.28L197.98 59.84L187.98 64.77L178.21 70.08L168.68 75.74L159.38 81.77L150.34 88.13L141.56 94.83L133.05 101.85L124.82 109.19L116.87 116.84L109.23 124.79L101.89 133.02L94.86 141.53L88.16 150.31L81.8 159.35L75.78 168.65L70.11 178.18L64.81 187.95L59.87 197.94L55.32 208.15L51.16 218.56L47.39 229.16L44.04 239.96L41.1 250.93L38.59 262.07L36.51 273.36L34.88 284.81L33.7 296.4L32.99 308.11L32.75 319.95L32.99 331.8L33.7 343.52L34.88 355.1L36.51 366.55L38.59 377.85L41.1 388.99L44.04 399.97L47.39 410.76L51.16 421.37L55.32 431.78L59.87 441.99L64.81 451.98L70.11 461.75L75.78 471.29L81.8 480.59L88.16 489.63L94.86 498.41L101.89 506.93L109.23 515.16L116.87 523.11L124.82 530.76L133.05 538.1L141.56 545.13L150.34 551.83L159.38 558.2L168.68 564.22L178.21 569.89L187.98 575.2L197.98 580.13L208.18 584.69L218.59 588.85L229.2 592.62L240 595.98L250.97 598.92L262.11 601.43L273.41 603.51L284.86 605.14L296.46 606.32L308.18 607.03L320.02 607.27L331.86 607.03L343.58 606.32L355.17 605.14L366.61 603.51L377.91 601.43L389.05 598.92L400.02 595.98L410.81 592.62L421.41 588.85L431.82 584.69L442.02 580.13L452.01 575.2L461.78 569.89L471.31 564.22L480.6 558.2L489.64 551.83L498.42 545.13L506.93 538.1L515.16 530.76L523.1 523.11L530.75 515.16L538.09 506.93L545.11 498.41L551.81 489.63L558.17 480.59L564.19 471.29L569.86 461.75L575.16 451.98L580.09 441.99L584.65 431.78L588.81 421.37L592.58 410.76L595.93 399.97L598.87 388.99L601.38 377.85L603.46 366.55L605.09 355.1L606.27 343.52L606.98 331.8L607.22 319.95L606.98 308.11L606.27 296.4L605.1 284.81L603.47 273.36L601.39 262.07L598.88 250.93L595.94 239.96L592.58 229.16L588.82 218.56L584.66 208.15L580.1 197.94L575.17 187.95L569.87 178.18L564.2 168.65L558.18 159.35L551.82 150.31L545.12 141.53L538.1 133.02L530.76 124.79L523.11 116.84L515.17 109.19L506.94 101.85L498.43 94.83L489.65 88.13L480.61 81.77L471.32 75.74L461.78 70.08L452.02 64.77L442.03 59.84L431.82 55.28L421.41 51.12L410.81 47.35L400.02 43.99L389.05 41.06L377.91 38.54L366.61 36.47L355.17 34.84L343.58 33.66L331.86 32.95L320.02 32.71L308.18 32.95L296.46 33.66Z" id="a1uunWhvO"></path><path d="M492.36 263.34C499.1 270.25 498.96 281.31 492.05 288.05C470.39 309.16 417.92 360.29 396.26 381.41C389.35 388.14 378.29 388 371.55 381.09C368.24 377.69 370.49 380 367.18 376.6C360.44 369.69 360.58 358.63 367.49 351.89C389.15 330.78 441.62 279.64 463.28 258.53C470.19 251.79 481.25 251.94 487.99 258.85C491.3 262.25 489.05 259.94 492.36 263.34Z" id="a1dISzYV4Z"></path><path d="M376.44 254.26C383.48 247.66 394.54 248.02 401.14 255.06C421.82 277.13 471.92 330.59 492.6 352.66C499.2 359.7 498.84 370.76 491.8 377.35C488.33 380.6 490.69 378.39 487.22 381.64C480.18 388.24 469.12 387.88 462.53 380.84C441.84 358.77 391.75 305.31 371.06 283.24C364.46 276.2 364.82 265.14 371.86 258.55C375.33 255.3 372.97 257.51 376.44 254.26Z" id="bP3DYjpFo"></path></defs><g><g><g><use xlink:href="#a1hZQfFcFw" opacity="1" fill="#000000" fill-opacity="0.8"></use></g><g><use xlink:href="#e2ojPVrhhU" opacity="1" fill="#ffffff" fill-opacity="1"></use><g><use xlink:href="#e2ojPVrhhU" opacity="1" fill-opacity="0" stroke="#000000" stroke-width="1" stroke-opacity="0"></use></g></g><g><use xlink:href="#a1uunWhvO" opacity="1" fill="#ffffff" fill-opacity="1"></use><g><use xlink:href="#a1uunWhvO" opacity="1" fill-opacity="0" stroke="#000000" stroke-width="1" stroke-opacity="0"></use></g></g><g><use xlink:href="#a1dISzYV4Z" opacity="1" fill="#ffffff" fill-opacity="1"></use></g><g><use xlink:href="#bP3DYjpFo" opacity="1" fill="#ffffff" fill-opacity="1"></use></g></g></g></svg>