<?xml version="1.0" encoding="UTF-8" standalone="no"?>
<!DOCTYPE svg PUBLIC "-//W3C//DTD SVG 1.1//EN" "http://www.w3.org/Graphics/SVG/1.1/DTD/svg11.dtd">
<svg version="1.1" xmlns="http://www.w3.org/2000/svg" xmlns:xlink="http://www.w3.org/1999/xlink" preserveAspectRatio="xMidYMid meet" viewBox="0 0 640 640" width="640" height="640"><defs><path d="M620.37 317.7C620.37 489.19 483.21 628.41 314.26 628.41C145.31 628.41 8.14 489.19 8.14 317.7C8.14 146.22 145.31 6.99 314.26 6.99C483.21 6.99 620.37 146.22 620.37 317.7Z" id="dhi8BcKj"></path><path d="M346.21 1.06L359.1 2.38L371.84 4.2L384.41 6.51L396.81 9.32L409.02 12.6L421.04 16.34L432.85 20.54L444.44 25.19L455.81 30.27L466.93 35.77L477.81 41.69L488.44 48.01L498.79 54.73L508.87 61.82L518.65 69.29L528.14 77.12L537.31 85.31L546.17 93.83L554.69 102.69L562.88 111.86L570.71 121.35L578.18 131.13L585.27 141.21L591.99 151.56L598.31 162.19L604.23 173.07L609.73 184.19L614.81 195.56L619.46 207.15L623.66 218.96L627.4 230.98L630.68 243.19L633.49 255.59L635.8 268.16L637.62 280.9L638.94 293.79L639.73 306.83L640 320L639.73 333.17L638.94 346.21L637.62 359.1L635.8 371.84L633.49 384.41L630.68 396.81L627.4 409.02L623.66 421.04L619.46 432.85L614.81 444.44L609.73 455.81L604.23 466.93L598.31 477.81L591.99 488.44L585.27 498.79L578.18 508.87L570.71 518.65L562.88 528.14L554.69 537.31L546.17 546.17L537.31 554.69L528.14 562.88L518.65 570.71L508.87 578.18L498.79 585.27L488.44 591.99L477.81 598.31L466.93 604.23L455.81 609.73L444.44 614.81L432.85 619.46L421.04 623.66L409.02 627.4L396.81 630.68L384.41 633.49L371.84 635.8L359.1 637.62L346.21 638.94L333.17 639.73L320 640L306.83 639.73L293.79 638.94L280.9 637.62L268.16 635.8L255.59 633.49L243.19 630.68L230.98 627.4L218.96 623.66L207.15 619.46L195.56 614.81L184.19 609.73L173.07 604.23L162.19 598.31L151.56 591.99L141.21 585.27L131.13 578.18L121.35 570.71L111.86 562.88L102.69 554.69L93.83 546.17L85.31 537.31L77.12 528.14L69.29 518.65L61.82 508.87L54.73 498.79L48.01 488.44L41.69 477.81L35.77 466.93L30.27 455.81L25.19 444.44L20.54 432.85L16.34 421.04L12.6 409.02L9.32 396.81L6.51 384.41L4.2 371.84L2.38 359.1L1.06 346.21L0.27 333.17L0 320L0.27 306.83L1.06 293.79L2.38 280.9L4.2 268.16L6.51 255.59L9.32 243.19L12.6 230.98L16.34 218.96L20.54 207.15L25.19 195.56L30.27 184.19L35.77 173.07L41.69 162.19L48.01 151.56L54.73 141.21L61.82 131.13L69.29 121.35L77.12 111.86L85.31 102.69L93.83 93.83L102.69 85.31L111.86 77.12L121.35 69.29L131.13 61.82L141.21 54.73L151.56 48.01L162.19 41.69L173.07 35.77L184.19 30.27L195.56 25.19L207.15 20.54L218.96 16.34L230.98 12.6L243.19 9.32L255.59 6.51L268.16 4.2L280.9 2.38L293.79 1.06L306.83 0.27L320 0L333.17 0.27L346.21 1.06ZM295.54 22.33L283.51 23.55L271.62 25.25L259.88 27.41L248.31 30.03L236.92 33.09L225.7 36.59L214.68 40.51L203.86 44.84L193.25 49.58L182.86 54.72L172.71 60.24L162.79 66.14L153.13 72.41L143.73 79.04L134.59 86.01L125.74 93.32L117.18 100.95L108.91 108.91L100.95 117.18L93.32 125.74L86.01 134.59L79.04 143.73L72.41 153.13L66.14 162.79L60.24 172.71L54.72 182.86L49.58 193.25L44.84 203.86L40.51 214.68L36.59 225.7L33.09 236.92L30.03 248.31L27.41 259.88L25.25 271.62L23.55 283.51L22.33 295.54L21.58 307.71L21.33 320L21.58 332.29L22.33 344.46L23.55 356.49L25.25 368.38L27.41 380.12L30.03 391.69L33.09 403.08L36.59 414.3L40.51 425.32L44.84 436.14L49.58 446.75L54.72 457.14L60.24 467.29L66.14 477.21L72.41 486.87L79.04 496.27L86.01 505.41L93.32 514.26L100.95 522.82L108.91 531.09L117.18 539.05L125.74 546.68L134.59 553.99L143.73 560.96L153.13 567.59L162.79 573.86L172.71 579.76L182.86 585.28L193.25 590.42L203.86 595.16L214.68 599.49L225.7 603.41L236.92 606.91L248.31 609.97L259.88 612.59L271.62 614.75L283.51 616.45L295.54 617.67L307.71 618.42L320 618.67L332.29 618.42L344.46 617.67L356.49 616.45L368.38 614.75L380.12 612.59L391.69 609.97L403.08 606.91L414.3 603.41L425.32 599.49L436.14 595.16L446.75 590.42L457.14 585.28L467.29 579.76L477.21 573.86L486.87 567.59L496.27 560.96L505.41 553.99L514.26 546.68L522.82 539.05L531.09 531.09L539.05 522.82L546.68 514.26L553.99 505.41L560.96 496.27L567.59 486.87L573.86 477.21L579.76 467.29L585.28 457.14L590.42 446.75L595.16 436.14L599.49 425.32L603.41 414.3L606.91 403.08L609.97 391.69L612.59 380.12L614.75 368.38L616.45 356.49L617.67 344.46L618.42 332.29L618.67 320L618.42 307.71L617.67 295.54L616.45 283.51L614.75 271.62L612.59 259.88L609.97 248.31L606.91 236.92L603.41 225.7L599.49 214.68L595.16 203.86L590.42 193.25L585.28 182.86L579.76 172.71L573.86 162.79L567.59 153.13L560.96 143.73L553.99 134.59L546.68 125.74L539.05 117.18L531.09 108.91L522.82 100.95L514.26 93.32L505.41 86.01L496.27 79.04L486.87 72.41L477.21 66.14L467.29 60.24L457.14 54.72L446.75 49.58L436.14 44.84L425.32 40.51L414.3 36.59L403.08 33.09L391.69 30.03L380.12 27.41L368.38 25.25L356.49 23.55L344.46 22.33L332.29 21.58L320 21.33L307.71 21.58L295.54 22.33Z" id="g39vNgIm5Q"></path><path d="M245.92 149.36L246.21 149.38L246.49 149.4L246.78 149.44L247.06 149.48L247.34 149.53L247.62 149.59L247.9 149.66L248.18 149.73L248.46 149.81L248.73 149.9L249 149.99L249.27 150.1L249.54 150.21L249.81 150.32L250.07 150.45L250.33 150.58L250.59 150.72L250.84 150.87L251.09 151.03L251.34 151.19L486.01 311.19L486.22 311.34L486.43 311.5L486.64 311.66L486.84 311.82L487.04 311.99L487.24 312.17L487.42 312.35L487.61 312.53L487.79 312.72L487.96 312.91L488.13 313.1L488.3 313.3L488.46 313.5L488.61 313.71L488.76 313.92L488.9 314.13L489.04 314.35L489.18 314.57L489.31 314.79L489.43 315.01L489.55 315.24L489.66 315.47L489.76 315.71L489.86 315.94L489.96 316.18L490.05 316.43L490.13 316.67L490.21 316.91L490.28 317.16L490.35 317.41L490.41 317.66L490.46 317.92L490.51 318.17L490.55 318.43L490.59 318.69L490.61 318.95L490.64 319.21L490.65 319.47L490.66 319.74L490.67 320L490.66 320.26L490.65 320.53L490.64 320.79L490.61 321.05L490.59 321.31L490.55 321.57L490.51 321.83L490.46 322.08L490.41 322.34L490.35 322.59L490.28 322.84L490.21 323.09L490.13 323.33L490.05 323.57L489.96 323.82L489.86 324.06L489.76 324.29L489.66 324.53L489.55 324.76L489.43 324.99L489.31 325.21L489.18 325.43L489.04 325.65L488.9 325.87L488.76 326.08L488.61 326.29L488.46 326.5L488.3 326.7L488.13 326.9L487.96 327.09L487.79 327.28L487.61 327.47L487.42 327.65L487.24 327.83L487.04 328.01L486.84 328.18L486.64 328.34L486.43 328.5L486.22 328.66L486.01 328.81L251.34 488.81L251.2 488.9L251.07 488.99L250.93 489.08L250.79 489.16L250.65 489.24L250.51 489.32L250.37 489.4L250.22 489.47L250.08 489.55L249.94 489.62L249.79 489.69L249.64 489.75L249.5 489.82L249.35 489.88L249.2 489.94L249.05 489.99L248.9 490.05L248.75 490.1L248.6 490.15L248.45 490.2L248.3 490.24L248.14 490.29L247.99 490.33L247.84 490.37L247.68 490.4L247.53 490.44L247.37 490.47L247.22 490.5L247.06 490.52L246.9 490.55L246.75 490.57L246.59 490.59L246.43 490.61L246.28 490.62L246.12 490.64L245.96 490.65L245.81 490.66L245.65 490.66L245.49 490.67L245.33 490.67L245.21 490.67L245.08 490.66L244.95 490.66L244.82 490.65L244.69 490.65L244.57 490.64L244.44 490.63L244.31 490.62L244.18 490.6L244.05 490.59L243.93 490.57L243.8 490.56L243.67 490.54L243.54 490.52L243.42 490.49L243.29 490.47L243.16 490.45L243.04 490.42L242.91 490.39L242.79 490.36L242.66 490.33L242.54 490.3L242.41 490.26L242.29 490.22L242.16 490.19L242.04 490.15L241.92 490.11L241.79 490.06L241.67 490.02L241.55 489.97L241.43 489.93L241.3 489.88L241.18 489.83L241.06 489.78L240.94 489.72L240.82 489.67L240.71 489.61L240.59 489.55L240.47 489.49L240.35 489.43L240.09 489.29L239.84 489.14L239.59 488.98L239.34 488.82L239.1 488.66L238.87 488.48L238.64 488.3L238.42 488.12L238.2 487.93L237.99 487.73L237.78 487.53L237.58 487.33L237.39 487.12L237.2 486.9L237.02 486.68L236.84 486.45L236.67 486.22L236.51 485.99L236.35 485.75L236.2 485.51L236.05 485.26L235.92 485.01L235.78 484.76L235.66 484.5L235.54 484.24L235.43 483.97L235.33 483.7L235.23 483.43L235.14 483.16L235.06 482.88L234.99 482.6L234.92 482.32L234.86 482.04L234.81 481.75L234.77 481.47L234.73 481.18L234.7 480.88L234.68 480.59L234.67 480.3L234.67 480L234.67 160L234.67 159.7L234.68 159.41L234.7 159.12L234.73 158.82L234.77 158.53L234.81 158.25L234.86 157.96L234.92 157.68L234.99 157.4L235.06 157.12L235.14 156.84L235.23 156.57L235.33 156.3L235.43 156.03L235.54 155.76L235.66 155.5L235.78 155.24L235.91 154.99L236.05 154.74L236.2 154.49L236.35 154.25L236.5 154.01L236.67 153.78L236.84 153.55L237.01 153.32L237.2 153.1L237.38 152.88L237.58 152.67L237.78 152.47L237.98 152.27L238.19 152.07L238.41 151.88L238.63 151.7L238.86 151.52L239.1 151.34L239.33 151.18L239.58 151.02L239.83 150.86L240.08 150.71L240.34 150.57L240.61 150.44L240.87 150.31L241.14 150.19L241.41 150.08L241.68 149.98L241.96 149.88L242.24 149.79L242.51 149.71L242.79 149.64L243.08 149.58L243.36 149.52L243.64 149.47L243.92 149.43L244.21 149.4L244.5 149.37L244.78 149.35L245.07 149.34L245.35 149.34L245.64 149.34L245.92 149.36ZM461.07 320L256 180.19L256 459.81L461.07 320Z" id="dXgafnd8F"></path><path d="M362.68 397.44L243.88 475.11L243.73 320L243.57 164.89L362.52 242.32L481.48 319.76L362.68 397.44Z" id="a6X5m5niJk"></path></defs><g><g><g><use xlink:href="#dhi8BcKj" opacity="1" fill="#000000" fill-opacity="0.8"></use></g><g><use xlink:href="#g39vNgIm5Q" opacity="1" fill="#ffffff" fill-opacity="1"></use><g><use xlink:href="#g39vNgIm5Q" opacity="1" fill-opacity="0" stroke="#000000" stroke-width="1" stroke-opacity="0"></use></g></g><g><use xlink:href="#dXgafnd8F" opacity="1" fill="#e50914" fill-opacity="1"></use><g><use xlink:href="#dXgafnd8F" opacity="1" fill-opacity="0" stroke="#000000" stroke-width="1" stroke-opacity="0"></use></g></g><g><use xlink:href="#a6X5m5niJk" opacity="1" fill="#e50914" fill-opacity="1"></use></g></g></g></svg>